<svg id="autorenew-24px" xmlns="http://www.w3.org/2000/svg" width="19" height="19" viewBox="0 0 19 19">
  <path id="Path_369" data-name="Path 369" d="M0,0H19V19H0Z" fill="none"/>
  <path id="Path_370" data-name="Path 370" d="M10.333,4.958V7.333L13.5,4.167,10.333,1V3.375a6.322,6.322,0,0,0-5.352,9.706l1.156-1.156a4.647,4.647,0,0,1-.554-2.217A4.754,4.754,0,0,1,10.333,4.958Zm5.352,1.377L14.529,7.492a4.742,4.742,0,0,1-4.2,6.967V12.083L7.167,15.25l3.167,3.167V16.042a6.322,6.322,0,0,0,5.352-9.706Z" transform="translate(-0.833 -0.208)" fill="#f21848"/>
</svg>
