<svg xmlns="http://www.w3.org/2000/svg" width="27.826" height="25" viewBox="0 0 27.826 25">
  <g id="Group_3996" data-name="Group 3996" transform="translate(0 -26)">
    <path id="Path_1597" data-name="Path 1597" d="M246.543,126a.543.543,0,1,0,.543.543A.544.544,0,0,0,246.543,126Z" transform="translate(-232.631 -94.565)" fill="#a29e9e"/>
    <path id="Path_1598" data-name="Path 1598" d="M80.543,287.087a.543.543,0,1,0-.543-.543A.544.544,0,0,0,80.543,287.087Z" transform="translate(-75.652 -245.87)" fill="#a29e9e"/>
    <path id="Path_1599" data-name="Path 1599" d="M18.261,26c-4.893,0-8.908,3.373-9.219,7.622C4.382,33.856,0,37.216,0,41.761a7.594,7.594,0,0,0,2.12,5.2,3.305,3.305,0,0,1-.873,3.114A.543.543,0,0,0,1.63,51a6,6,0,0,0,4.154-1.679,12.383,12.383,0,0,0,3.781.592c4.892,0,8.907-3.372,9.219-7.621a12.219,12.219,0,0,0,3.258-.58A6,6,0,0,0,26.2,43.391a.543.543,0,0,0,.384-.928,3.305,3.305,0,0,1-.873-3.114,7.594,7.594,0,0,0,2.12-5.2C27.826,29.43,23.106,26,18.261,26Zm-8.7,22.826a10.986,10.986,0,0,1-3.723-.641.544.544,0,0,0-.6.138A4.9,4.9,0,0,1,2.8,49.77a4.4,4.4,0,0,0,.331-3.235A.543.543,0,0,0,3,46.305a6.531,6.531,0,0,1-1.912-4.545c0-3.83,3.882-7.065,8.478-7.065,4.34,0,8.152,3.018,8.152,7.065C17.717,45.656,14.06,48.826,9.565,48.826ZM24.826,38.7a.545.545,0,0,0-.133.23,4.4,4.4,0,0,0,.331,3.235,4.9,4.9,0,0,1-2.439-1.447.544.544,0,0,0-.6-.138,10.706,10.706,0,0,1-3.2.628,7.779,7.779,0,0,0-2.937-5.421h7.089a.543.543,0,1,0,0-1.087H14.176a10.136,10.136,0,0,0-4.045-1.071c.312-3.65,3.839-6.538,8.129-6.538,4.6,0,8.478,3.235,8.478,7.065A6.531,6.531,0,0,1,24.826,38.7Z" fill="#a29e9e"/>
    <path id="Path_1600" data-name="Path 1600" d="M127.391,286h-6.848a.543.543,0,1,0,0,1.087h6.848a.543.543,0,1,0,0-1.087Z" transform="translate(-113.478 -245.87)" fill="#a29e9e"/>
    <path id="Path_1601" data-name="Path 1601" d="M89.565,346H80.543a.543.543,0,1,0,0,1.087h9.022a.543.543,0,0,0,0-1.087Z" transform="translate(-75.652 -302.609)" fill="#a29e9e"/>
    <path id="Path_1602" data-name="Path 1602" d="M293.391,126h-6.848a.543.543,0,0,0,0,1.087h6.848a.543.543,0,1,0,0-1.087Z" transform="translate(-270.457 -94.565)" fill="#a29e9e"/>
  </g>
</svg>
